<?xml version="1.0" encoding="UTF-8" standalone="no"?>
<!DOCTYPE svg PUBLIC "-//W3C//DTD SVG 1.1//EN"
 "http://www.w3.org/Graphics/SVG/1.1/DTD/svg11.dtd">
<!-- Generated by graphviz version 12.2.1 (20241206.2353)
 -->
<!-- Title: JemulaKernel Pages: 1 -->
<svg width="1287pt" height="907pt"
 viewBox="0.00 0.00 1286.65 907.15" xmlns="http://www.w3.org/2000/svg" xmlns:xlink="http://www.w3.org/1999/xlink">
<g id="graph0" class="graph" transform="scale(1 1) rotate(0) translate(25.2 881.95)">
<title>JemulaKernel</title>
<polygon fill="#f3f5f2" stroke="none" points="-25.2,25.2 -25.2,-881.95 1261.45,-881.95 1261.45,25.2 -25.2,25.2"/>
<text text-anchor="middle" x="618.12" y="-833.75" font-family="Segoe UI" font-size="20.00" fill="#1c2b32">Jemula++ Kernel Class Diagram</text>
<text text-anchor="middle" x="618.12" y="-806.75" font-family="Segoe UI" font-size="20.00" fill="#1c2b32">Generated from C:UserssulekTHMsc&#45;CSSemester 3Wireless Networks and Mobile Computingxswireless&#45;networking&#45;and&#45;mobile&#45;computing</text>
<text text-anchor="middle" x="618.12" y="-779.75" font-family="Segoe UI" font-size="20.00" fill="#1c2b32">otebooks01 Jemulajemula&#45;projectsimulatorkernelsrckernel</text>
<!-- JEEvent -->
<g id="node1" class="node">
<title>JEEvent</title>
<polygon fill="#ffffff" stroke="none" points="139.81,-333.38 139.81,-504.12 321.81,-504.12 321.81,-333.38 139.81,-333.38"/>
<polygon fill="#e5f0ed" stroke="none" points="140.81,-478.38 140.81,-503.12 320.81,-503.12 320.81,-478.38 140.81,-478.38"/>
<text text-anchor="start" x="146.81" y="-488.57" font-family="Segoe UI" font-size="9.00" fill="#26756f">kernel :: class</text>
<text text-anchor="start" x="146.81" y="-460.07" font-family="Segoe UI" font-weight="bold" font-size="14.00">JEEvent</text>
<text text-anchor="start" x="146.81" y="-431.38" font-family="Consolas" font-size="10.00">~ name: String</text>
<text text-anchor="start" x="146.81" y="-408.88" font-family="Consolas" font-size="10.00">~ theTargetHandlerId: Integer</text>
<text text-anchor="start" x="146.81" y="-386.38" font-family="Consolas" font-size="10.00">~ theSourceHandlerId: Integer</text>
<text text-anchor="start" x="146.81" y="-363.88" font-family="Consolas" font-size="10.00">~ theScheduledTime: JETime</text>
<text text-anchor="start" x="146.81" y="-341.38" font-family="Consolas" font-size="10.00">~ theParameterList: List&lt;Object&gt;</text>
<polygon fill="#c6d2d0" stroke="#c6d2d0" points="139.81,-446.88 139.81,-446.88 321.81,-446.88 321.81,-446.88 139.81,-446.88"/>
<polygon fill="none" stroke="#c6d2d0" points="139.81,-333.38 139.81,-504.12 321.81,-504.12 321.81,-333.38 139.81,-333.38"/>
</g>
<!-- JEmula -->
<g id="node5" class="node">
<title>JEmula</title>
<polygon fill="#ffffff" stroke="none" points="324.94,-597 324.94,-767.75 564.69,-767.75 564.69,-597 324.94,-597"/>
<polygon fill="#e5f0ed" stroke="none" points="325.94,-742 325.94,-766.75 563.69,-766.75 563.69,-742 325.94,-742"/>
<text text-anchor="start" x="331.94" y="-752.2" font-family="Segoe UI" font-size="9.00" fill="#26756f">kernel :: class</text>
<text text-anchor="start" x="331.94" y="-723.7" font-family="Segoe UI" font-weight="bold" font-size="14.00">JEmula</text>
<text text-anchor="start" x="331.94" y="-695" font-family="Consolas" font-size="10.00">~ debuglevel: int</text>
<text text-anchor="start" x="331.94" y="-672.5" font-family="Consolas" font-size="10.00">~ verbose: boolean</text>
<text text-anchor="start" x="331.94" y="-650" font-family="Consolas" font-size="10.00">~ messageSelector: String</text>
<text text-anchor="start" x="331.94" y="-627.5" font-family="Consolas" font-size="10.00">~ theUniqueEventScheduler: JEEventScheduler</text>
<text text-anchor="start" x="331.94" y="-605" font-family="Consolas" font-size="10.00">~ theUniqueRandomGenerator: Random</text>
<polygon fill="#c6d2d0" stroke="#c6d2d0" points="324.94,-710.5 324.94,-710.5 564.69,-710.5 564.69,-710.5 324.94,-710.5"/>
<polygon fill="none" stroke="#c6d2d0" points="324.94,-597 324.94,-767.75 564.69,-767.75 564.69,-597 324.94,-597"/>
</g>
<!-- JEEvent&#45;&gt;JEmula -->
<g id="edge1" class="edge">
<title>JEEvent&#45;&gt;JEmula</title>
<path fill="none" stroke="#52666d" stroke-width="1.5" d="M321.61,-446.75C333.69,-446.75 342,-446.75 342,-446.75 342,-446.75 342,-585.04 342,-585.04"/>
<polygon fill="none" stroke="#52666d" stroke-width="1.5" points="338.5,-585.04 342,-595.04 345.5,-585.04 338.5,-585.04"/>
</g>
<!-- JETime -->
<g id="node7" class="node">
<title>JETime</title>
<polygon fill="#ffffff" stroke="none" points="600.31,-79.88 600.31,-160.62 677.31,-160.62 677.31,-79.88 600.31,-79.88"/>
<polygon fill="#e5f0ed" stroke="none" points="601.31,-134.88 601.31,-159.62 676.31,-159.62 676.31,-134.88 601.31,-134.88"/>
<text text-anchor="start" x="607.31" y="-145.07" font-family="Segoe UI" font-size="9.00" fill="#26756f">kernel :: class</text>
<text text-anchor="start" x="607.31" y="-116.58" font-family="Segoe UI" font-weight="bold" font-size="14.00">JETime</text>
<text text-anchor="start" x="607.31" y="-87.88" font-family="Consolas" font-size="10.00">~ time: long</text>
<polygon fill="#c6d2d0" stroke="#c6d2d0" points="600.31,-103.38 600.31,-103.38 677.31,-103.38 677.31,-103.38 600.31,-103.38"/>
<polygon fill="none" stroke="#c6d2d0" points="600.31,-79.88 600.31,-160.62 677.31,-160.62 677.31,-79.88 600.31,-79.88"/>
</g>
<!-- JEEvent&#45;&gt;JETime -->
<g id="edge5" class="edge">
<title>JEEvent&#45;&gt;JETime</title>
<path fill="none" stroke="#91a5a4" d="M230.81,-333.66C230.81,-295.86 230.81,-259.75 230.81,-259.75 230.81,-259.75 625.98,-259.75 625.98,-259.75 625.98,-259.75 625.98,-201.8 625.98,-160.6"/>
<text text-anchor="middle" x="404.64" y="-251.2" font-family="Segoe UI" font-size="9.00" fill="#506168">theScheduledTime</text>
</g>
<!-- JEEventHandler -->
<g id="node2" class="node">
<title>JEEventHandler</title>
<polygon fill="#ffffff" stroke="none" points="361.69,-322.12 361.69,-515.38 527.94,-515.38 527.94,-322.12 361.69,-322.12"/>
<polygon fill="#e5f0ed" stroke="none" points="362.69,-489.62 362.69,-514.38 526.94,-514.38 526.94,-489.62 362.69,-489.62"/>
<text text-anchor="start" x="368.69" y="-499.82" font-family="Segoe UI" font-size="9.00" fill="#26756f">kernel :: class</text>
<text text-anchor="start" x="368.69" y="-471.32" font-family="Segoe UI" font-weight="bold" font-size="14.00">JEEventHandler</text>
<text text-anchor="start" x="368.69" y="-442.62" font-family="Consolas" font-size="10.00">~ theUniqueHandlerId: int</text>
<text text-anchor="start" x="368.69" y="-420.12" font-family="Consolas" font-size="10.00">~ HandlerId: Integer</text>
<text text-anchor="start" x="368.69" y="-397.62" font-family="Consolas" font-size="10.00">~ theLastRxEvent: JEEvent</text>
<text text-anchor="start" x="368.69" y="-375.12" font-family="Consolas" font-size="10.00">~ theLastTxEvent: JEEvent</text>
<text text-anchor="start" x="368.69" y="-352.62" font-family="Consolas" font-size="10.00">~ theState: state</text>
<text text-anchor="start" x="368.69" y="-330.12" font-family="Consolas" font-size="10.00">~ parameterlist: List&lt;Object&gt;</text>
<polygon fill="#c6d2d0" stroke="#c6d2d0" points="361.69,-458.12 361.69,-458.12 527.94,-458.12 527.94,-458.12 361.69,-458.12"/>
<polygon fill="none" stroke="#c6d2d0" points="361.69,-322.12 361.69,-515.38 527.94,-515.38 527.94,-322.12 361.69,-322.12"/>
</g>
<!-- JEEventHandler&#45;&gt;JEEvent -->
<g id="edge6" class="edge">
<title>JEEventHandler&#45;&gt;JEEvent</title>
<path fill="none" stroke="#91a5a4" d="M361.77,-390.75C348.61,-390.75 334.94,-390.75 321.62,-390.75"/>
<text text-anchor="middle" x="341.69" y="-394.95" font-family="Segoe UI" font-size="9.00" fill="#506168">theLastRxEvent, theLastTxEvent</text>
</g>
<!-- JEEventHandler&#45;&gt;JEmula -->
<g id="edge2" class="edge">
<title>JEEventHandler&#45;&gt;JEmula</title>
<path fill="none" stroke="#52666d" stroke-width="1.5" d="M444.81,-515.04C444.81,-515.04 444.81,-584.96 444.81,-584.96"/>
<polygon fill="none" stroke="#52666d" stroke-width="1.5" points="441.31,-584.96 444.81,-594.96 448.31,-584.96 441.31,-584.96"/>
</g>
<!-- JEEventList -->
<g id="node3" class="node">
<title>JEEventList</title>
<polygon fill="#ffffff" stroke="none" points="717.69,-79.88 717.69,-160.62 967.94,-160.62 967.94,-79.88 717.69,-79.88"/>
<polygon fill="#e5f0ed" stroke="none" points="718.69,-134.88 718.69,-159.62 966.94,-159.62 966.94,-134.88 718.69,-134.88"/>
<text text-anchor="start" x="724.69" y="-145.07" font-family="Segoe UI" font-size="9.00" fill="#26756f">kernel :: class</text>
<text text-anchor="start" x="724.69" y="-116.58" font-family="Segoe UI" font-weight="bold" font-size="14.00">JEEventList</text>
<text text-anchor="start" x="724.69" y="-87.88" font-family="Consolas" font-size="10.00">~ treeMap: TreeMap&lt;Long, LinkedList&lt;JEEvent&gt;&gt;</text>
<polygon fill="#c6d2d0" stroke="#c6d2d0" points="717.69,-103.38 717.69,-103.38 967.94,-103.38 967.94,-103.38 717.69,-103.38"/>
<polygon fill="none" stroke="#c6d2d0" points="717.69,-79.88 717.69,-160.62 967.94,-160.62 967.94,-79.88 717.69,-79.88"/>
</g>
<!-- JEEventList&#45;&gt;JEEvent -->
<g id="edge7" class="edge">
<title>JEEventList&#45;&gt;JEEvent</title>
<path fill="none" stroke="#91a5a4" d="M735.56,-160.25C735.56,-207.2 735.56,-278.75 735.56,-278.75 735.56,-278.75 276.31,-278.75 276.31,-278.75 276.31,-278.75 276.31,-304.36 276.31,-333.68"/>
<text text-anchor="middle" x="521.22" y="-270.2" font-family="Segoe UI" font-size="9.00" fill="#506168">treeMap</text>
</g>
<!-- JEEventScheduler -->
<g id="node4" class="node">
<title>JEEventScheduler</title>
<polygon fill="#ffffff" stroke="none" points="568.31,-298.5 568.31,-539 771.31,-539 771.31,-298.5 568.31,-298.5"/>
<polygon fill="#e5f0ed" stroke="none" points="569.31,-513.25 569.31,-538 770.31,-538 770.31,-513.25 569.31,-513.25"/>
<text text-anchor="start" x="575.31" y="-523.45" font-family="Segoe UI" font-size="9.00" fill="#26756f">kernel :: class</text>
<text text-anchor="start" x="575.31" y="-494.95" font-family="Segoe UI" font-weight="bold" font-size="14.00">JEEventScheduler</text>
<text text-anchor="start" x="575.31" y="-466.25" font-family="Consolas" font-size="10.00">~ now: JETime</text>
<text text-anchor="start" x="575.31" y="-443.75" font-family="Consolas" font-size="10.00">~ eventList: JEEventList</text>
<text text-anchor="start" x="575.31" y="-421.25" font-family="Consolas" font-size="10.00">~ handlersById: List&lt;JEEventHandler&gt;</text>
<text text-anchor="start" x="575.31" y="-398.75" font-family="Consolas" font-size="10.00">~ theEmulationEnd: JETime</text>
<text text-anchor="start" x="575.31" y="-376.25" font-family="Consolas" font-size="10.00">~ thePath2Results: String</text>
<text text-anchor="start" x="575.31" y="-353.75" font-family="Consolas" font-size="10.00">~ theProgressHook: Runnable</text>
<text text-anchor="start" x="575.31" y="-331.25" font-family="Consolas" font-size="10.00">~ DateOfStart: long</text>
<text text-anchor="start" x="575.31" y="-309.7" font-family="Segoe UI" font-size="9.00" fill="#506168">... +3 fields</text>
<polygon fill="#c6d2d0" stroke="#c6d2d0" points="568.31,-481.75 568.31,-481.75 771.31,-481.75 771.31,-481.75 568.31,-481.75"/>
<polygon fill="none" stroke="#c6d2d0" points="568.31,-298.5 568.31,-539 771.31,-539 771.31,-298.5 568.31,-298.5"/>
</g>
<!-- JEEventScheduler&#45;&gt;JEEventHandler -->
<g id="edge8" class="edge">
<title>JEEventScheduler&#45;&gt;JEEventHandler</title>
<path fill="none" stroke="#91a5a4" d="M568.5,-418.75C554.85,-418.75 540.99,-418.75 527.71,-418.75"/>
<text text-anchor="middle" x="548.11" y="-422.95" font-family="Segoe UI" font-size="9.00" fill="#506168">handlersById</text>
</g>
<!-- JEEventScheduler&#45;&gt;JEEventList -->
<g id="edge9" class="edge">
<title>JEEventScheduler&#45;&gt;JEEventList</title>
<path fill="none" stroke="#91a5a4" d="M753.44,-298.63C753.44,-249.54 753.44,-196.08 753.44,-160.62"/>
<text text-anchor="middle" x="735.81" y="-221.07" font-family="Segoe UI" font-size="9.00" fill="#506168">eventList</text>
</g>
<!-- JEEventScheduler&#45;&gt;JEmula -->
<g id="edge3" class="edge">
<title>JEEventScheduler&#45;&gt;JEmula</title>
<path fill="none" stroke="#52666d" stroke-width="1.5" d="M568.54,-530.75C559.29,-530.75 553.31,-530.75 553.31,-530.75 553.31,-530.75 553.31,-584.98 553.31,-584.98"/>
<polygon fill="none" stroke="#52666d" stroke-width="1.5" points="549.81,-584.98 553.31,-594.98 556.81,-584.98 549.81,-584.98"/>
</g>
<!-- JEEventScheduler&#45;&gt;JETime -->
<g id="edge10" class="edge">
<title>JEEventScheduler&#45;&gt;JETime</title>
<path fill="none" stroke="#91a5a4" d="M651.65,-298.63C651.65,-249.54 651.65,-196.08 651.65,-160.62"/>
<text text-anchor="middle" x="607.02" y="-221.07" font-family="Segoe UI" font-size="9.00" fill="#506168">now, theEmulationEnd</text>
</g>
<!-- JEmula&#45;&gt;JEEventScheduler -->
<g id="edge13" class="edge">
<title>JEmula&#45;&gt;JEEventScheduler</title>
<path fill="none" stroke="#91a5a4" d="M541.94,-597.42C541.94,-559.3 541.94,-522.75 541.94,-522.75 541.94,-522.75 552.91,-522.75 568.43,-522.75"/>
<text text-anchor="middle" x="490.94" y="-538.29" font-family="Segoe UI" font-size="9.00" fill="#506168">theUniqueEventScheduler</text>
</g>
<!-- JEmulaFatalException -->
<g id="node6" class="node">
<title>JEmulaFatalException</title>
<polygon fill="#ffffff" stroke="none" points="1007.69,-79.88 1007.69,-160.62 1161.94,-160.62 1161.94,-79.88 1007.69,-79.88"/>
<polygon fill="#e5f0ed" stroke="none" points="1008.69,-134.88 1008.69,-159.62 1160.94,-159.62 1160.94,-134.88 1008.69,-134.88"/>
<text text-anchor="start" x="1014.69" y="-145.07" font-family="Segoe UI" font-size="9.00" fill="#26756f">kernel :: class</text>
<text text-anchor="start" x="1014.69" y="-116.58" font-family="Segoe UI" font-weight="bold" font-size="14.00">JEmulaFatalException</text>
<text text-anchor="start" x="1014.69" y="-87.88" font-family="Consolas" font-size="10.00">~ serialVersionUID: long</text>
<polygon fill="#c6d2d0" stroke="#c6d2d0" points="1007.69,-103.38 1007.69,-103.38 1161.94,-103.38 1161.94,-103.38 1007.69,-103.38"/>
<polygon fill="none" stroke="#c6d2d0" points="1007.69,-79.88 1007.69,-160.62 1161.94,-160.62 1161.94,-79.88 1007.69,-79.88"/>
</g>
<!-- JETimer -->
<g id="node8" class="node">
<title>JETimer</title>
<polygon fill="#ffffff" stroke="none" points="359.06,0 359.06,-240.5 530.56,-240.5 530.56,0 359.06,0"/>
<polygon fill="#e5f0ed" stroke="none" points="360.06,-214.75 360.06,-239.5 529.56,-239.5 529.56,-214.75 360.06,-214.75"/>
<text text-anchor="start" x="366.06" y="-224.95" font-family="Segoe UI" font-size="9.00" fill="#26756f">kernel :: class</text>
<text text-anchor="start" x="366.06" y="-196.45" font-family="Segoe UI" font-weight="bold" font-size="14.00">JETimer</text>
<text text-anchor="start" x="366.06" y="-167.75" font-family="Consolas" font-size="10.00">~ theStartTime: JETime</text>
<text text-anchor="start" x="366.06" y="-145.25" font-family="Consolas" font-size="10.00">~ theResumeTime: JETime</text>
<text text-anchor="start" x="366.06" y="-122.75" font-family="Consolas" font-size="10.00">~ theElapsedInterval: JETime</text>
<text text-anchor="start" x="366.06" y="-100.25" font-family="Consolas" font-size="10.00">~ theRemainingInterval: JETime</text>
<text text-anchor="start" x="366.06" y="-77.75" font-family="Consolas" font-size="10.00">~ theFireEventName: String</text>
<text text-anchor="start" x="366.06" y="-55.25" font-family="Consolas" font-size="10.00">~ theExpiryIndicator: JEEvent</text>
<text text-anchor="start" x="366.06" y="-32.75" font-family="Consolas" font-size="10.00">~ theTargetHandlerId: Integer</text>
<text text-anchor="start" x="366.06" y="-11.2" font-family="Segoe UI" font-size="9.00" fill="#506168">... +2 fields</text>
<polygon fill="#c6d2d0" stroke="#c6d2d0" points="359.06,-183.25 359.06,-183.25 530.56,-183.25 530.56,-183.25 359.06,-183.25"/>
<polygon fill="none" stroke="#c6d2d0" points="359.06,0 359.06,-240.5 530.56,-240.5 530.56,0 359.06,0"/>
</g>
<!-- JETimer&#45;&gt;JEEvent -->
<g id="edge11" class="edge">
<title>JETimer&#45;&gt;JEEvent</title>
<path fill="none" stroke="#91a5a4" d="M359.12,-119.75C283.54,-119.75 185.31,-119.75 185.31,-119.75 185.31,-119.75 185.31,-245.09 185.31,-333.47"/>
<text text-anchor="middle" x="129.81" y="-131.15" font-family="Segoe UI" font-size="9.00" fill="#506168">fireEvent, theExpiryIndicator</text>
</g>
<!-- JETimer&#45;&gt;JEEventHandler -->
<g id="edge4" class="edge">
<title>JETimer&#45;&gt;JEEventHandler</title>
<path fill="none" stroke="#52666d" stroke-width="1.5" d="M444.81,-240.37C444.81,-240.37 444.81,-309.97 444.81,-309.97"/>
<polygon fill="none" stroke="#52666d" stroke-width="1.5" points="441.31,-309.97 444.81,-319.97 448.31,-309.97 441.31,-309.97"/>
</g>
<!-- JETimer&#45;&gt;JETime -->
<g id="edge12" class="edge">
<title>JETimer&#45;&gt;JETime</title>
<path fill="none" stroke="#91a5a4" d="M530.47,-119.75C555.03,-119.75 580.58,-119.75 600.69,-119.75"/>
<text text-anchor="middle" x="424.96" y="-111.2" font-family="Segoe UI" font-size="9.00" fill="#506168">theElapsedInterval, theRemainingInterval, theResumeTime, theStartTime</text>
</g>
</g>
</svg>
